<?xml version="1.0" encoding="UTF-8"?>
<svg width="64px" height="52px" viewBox="0 0 64 52" version="1.1" xmlns="http://www.w3.org/2000/svg" xmlns:xlink="http://www.w3.org/1999/xlink">
    <!-- Generator: Sketch 41 (35326) - http://www.bohemiancoding.com/sketch -->
    <title>execute</title>
    <desc>Created with Sketch.</desc>
    <defs></defs>
    <g id="Page-1" stroke="none" stroke-width="1" fill="none" fill-rule="evenodd">
        <path d="M7.3394959,41.0295176 C7.3394959,41.0047625 7.34916586,40.8802135 7.33640152,40.7583721 C7.32518437,40.651229 7.28882534,40.5467935 7.26368345,40.4411976 C7.2106921,40.5429255 7.13990803,40.639625 7.10857737,40.7479285 C7.04011409,40.9838754 6.98596234,41.2244639 6.93915976,41.465826 C6.9302634,41.5114682 6.96894322,41.592309 7.00955703,41.6170641 C7.12985128,41.6897822 7.22848482,41.6406588 7.26600424,41.4917415 C7.2957877,41.3729944 7.30545766,41.249219 7.3394959,41.0295176 L7.3394959,41.0295176 Z M45.8406154,28.5185297 C45.8406154,28.7571842 45.8352003,28.8794125 45.8440966,29.0008671 C45.8468042,29.0368393 45.8916728,29.1002742 45.9141071,29.0987271 C46.1608843,29.0836419 45.8719461,29.1521052 45.9856648,28.9347246 C46.1821582,28.5575964 46.3933501,28.1758265 46.3221792,27.722499 C46.3136696,27.6675737 46.2660935,27.6184503 46.2366968,27.5662326 C46.1570164,27.6227051 46.0270522,27.6648661 46.0069387,27.737971 C45.925711,28.0303904 45.8781349,28.332093 45.8406154,28.5185297 L45.8406154,28.5185297 Z M5.24537043,34.6082807 C5.294107,34.883681 5.31073933,35.104156 5.3370416,35.1053163 C5.55712978,35.1149863 5.52579913,34.9049549 5.57298851,34.7730567 C5.78031235,34.1940198 5.96984346,33.6080205 5.94199399,32.9829546 C5.93773921,32.8831607 5.83485089,32.7876215 5.77760476,32.6905352 C5.69715073,32.777178 5.56486575,32.8529904 5.54436544,32.9520108 C5.42175041,33.5503876 5.32505086,34.1541796 5.24537043,34.6082807 L5.24537043,34.6082807 Z M11.7865148,46.4729287 C11.7865148,46.0613754 11.7954112,45.8157586 11.7810997,45.5716889 C11.7764581,45.4908481 11.7103156,45.4138753 11.6724094,45.3353552 C11.6410787,45.3848654 11.5935025,45.4305076 11.5807382,45.4842725 C11.454642,46.0130257 11.1042028,46.4988442 11.2507993,47.0771075 C11.2712996,47.1591087 11.4117074,47.2194493 11.5080201,47.2674122 C11.5393508,47.283271 11.6445599,47.2360816 11.6515223,47.2039773 C11.7141836,46.9076899 11.7625334,46.6086949 11.7865148,46.4729287 L11.7865148,46.4729287 Z M2.23143883,29.0213674 C2.23143883,29.6839527 2.22602366,29.9245412 2.23530681,30.1643561 C2.2376276,30.2173475 2.29139255,30.2684048 2.32117602,30.3202358 C2.40395083,30.2606689 2.52927345,30.2185079 2.5617645,30.1384406 C2.69675707,29.806181 2.82749486,29.4681193 2.90988288,29.1203878 C2.9481759,28.9587061 2.87855223,28.769175 2.84760837,28.5939554 C2.8185985,28.4322738 2.52849985,28.2195347 2.44804583,28.2961208 C2.37300698,28.3672917 2.27321304,28.4543212 2.26238269,28.5436716 C2.22641046,28.8415062 2.22563686,29.1435956 2.23143883,29.0213674 L2.23143883,29.0213674 Z M25.3318011,35.4120473 C25.3318011,35.7261275 25.3178764,35.8491293 25.3364427,35.9667159 C25.3503674,36.0537455 25.40684,36.1341996 25.4447462,36.2173612 C25.4772372,36.1686246 25.527521,36.123756 25.5398985,36.0699911 C25.7271089,35.2488185 25.9139324,34.4276459 26.0821896,33.6022185 C26.0934068,33.5469064 25.9599614,33.4529144 25.8806678,33.3945079 C25.8636486,33.3821304 25.7549583,33.4397633 25.7464488,33.4780563 C25.5901823,34.1828026 25.4424254,34.889483 25.3318011,35.4120473 L25.3318011,35.4120473 Z M61.6142461,20.5702135 C61.5670568,20.8262739 61.4962727,21.1894774 61.4339982,21.5542281 C61.3964788,21.7723823 61.5450093,22.0071688 61.6649167,21.9344507 C61.7620031,21.8756574 61.896222,21.7855334 61.9082128,21.6950227 C61.9646853,21.2691578 62.0099407,20.8382646 62.0111011,20.4093054 C62.0126483,19.9223265 62.116697,19.4245172 61.9182695,18.9491422 C61.5910383,19.3432896 61.7554275,19.8380045 61.6478976,20.2774072 C61.6335861,20.3365874 61.6331993,20.3996355 61.6142461,20.5702135 L61.6142461,20.5702135 Z M12.8656818,42.6413057 C12.8761254,42.6420793 12.8865689,42.6432397 12.8973993,42.6440133 C12.8703234,43.0056696 12.8355116,43.3669392 12.8235208,43.7293691 C12.8212,43.8055683 12.9028145,43.884862 12.9457491,43.9626084 C12.9871365,43.9196738 13.047477,43.8840884 13.0675905,43.833031 C13.3766423,43.0447363 13.6005984,42.234394 13.6566842,41.3861456 C13.6698353,41.1884917 13.5418051,41.0658767 13.3414436,41.0391876 C13.0830624,41.0047625 13.0362598,41.2240771 13.0095708,41.3807304 C12.9391735,41.7973121 12.9105504,42.2204693 12.8656818,42.6413057 L12.8656818,42.6413057 Z M19.5661871,42.6180978 C19.5658003,42.625447 19.5824326,42.4428783 19.5801118,42.2606963 C19.5785646,42.1407889 19.5499416,42.0212682 19.533696,41.9017476 C19.4818651,41.9818148 19.4021847,42.0553065 19.3816844,42.1427229 C19.1329731,43.2083519 18.8892902,44.2755281 18.6556641,45.3442516 C18.6320694,45.4533287 18.6742304,45.5805853 18.7016931,45.6954643 C18.7152311,45.7507765 18.7860151,45.8451553 18.7964587,45.8409005 C18.903215,45.7956451 19.02583,45.7538709 19.0977745,45.6710961 C19.1720397,45.5860005 19.2203895,45.4595174 19.2354746,45.3450252 C19.3445517,44.4998711 19.4424117,43.652783 19.5661871,42.6180978 L19.5661871,42.6180978 Z M60.2322162,18.0997334 C60.2322162,18.2641226 60.2159706,18.3902188 60.2372445,18.5093527 C60.2534901,18.6002502 60.316925,18.6826382 60.3594728,18.7688942 C60.4008602,18.7255728 60.4577195,18.6892138 60.4820878,18.6373829 C60.9412173,17.6719345 61.0746627,16.6368626 61.1233992,15.5847714 C61.1261068,15.5310065 61.091295,15.4664112 61.0545491,15.4230898 C61.0251525,15.3886648 60.9640384,15.3596549 60.9211038,15.3642965 C60.8657916,15.3704852 60.7837904,15.3994951 60.7659977,15.4412693 C60.395445,16.3022821 60.4055018,17.2383338 60.2322162,18.0997334 L60.2322162,18.0997334 Z M33.8150593,30.7457138 C33.8231821,30.7461006 33.8313048,30.7461006 33.8394276,30.7464874 C33.8394276,31.1723522 33.83672,31.598217 33.8432956,32.0244687 C33.8440692,32.071658 33.8978341,32.1180738 33.926844,32.1652632 C33.9775145,32.1304514 34.0587422,32.1060831 34.0734405,32.0600541 C34.1871592,31.7115489 34.3078402,31.3634305 34.3879074,31.0064158 C34.5348908,30.3538872 34.6578926,29.6959435 34.7839888,29.0387733 C34.8075835,28.9161583 34.5051073,28.7401651 34.3735959,28.7900621 C34.1368754,28.8805729 33.9218156,29.0159522 33.8959001,29.2832298 C33.8498711,29.7690483 33.8398144,30.2579613 33.8150593,30.7457138 L33.8150593,30.7457138 Z M34.9077642,36.0444624 C34.9077642,35.2619696 34.9108586,34.7680283 34.904283,34.274087 C34.9035094,34.2195485 34.8609616,34.1510852 34.8164798,34.1170469 C34.7952059,34.1008014 34.6880628,34.1414152 34.6803269,34.1715855 C34.4095681,35.2434033 34.1446114,36.3167683 33.8835226,37.3912937 C33.8695978,37.4477663 33.8951265,37.5127484 33.8986077,37.5738625 C33.9059569,37.6976379 34.2300938,37.8361117 34.3608316,37.7579784 C34.5704762,37.6334294 34.8129987,37.5177767 34.8365934,37.2354141 C34.8772072,36.7437935 34.8961603,36.2498522 34.9077642,36.0444624 L34.9077642,36.0444624 Z M42.0070584,27.7754904 L42.0329739,27.7754904 C42.0329739,28.3224231 42.0310399,28.8697425 42.0364551,29.4166752 C42.0368419,29.4657985 42.0824841,29.5141483 42.1072392,29.5628849 C42.1582965,29.5296203 42.2441657,29.505252 42.2553829,29.4619306 C42.5566987,28.28413 42.8510521,27.1047823 43.142698,25.924661 C43.1562359,25.8689621 43.1566227,25.7796117 43.1233581,25.748281 C43.0432908,25.6720818 42.9365345,25.5649387 42.8456369,25.5695803 C42.3017987,25.5966561 42.0186624,25.8534901 42.0093792,26.31378 C41.9997093,26.8007589 42.0070584,27.2885115 42.0070584,27.7754904 L42.0070584,27.7754904 Z M44.8260437,31.6434724 C44.8260437,31.2775613 44.8295249,30.8489889 44.8233362,30.4208033 C44.821789,30.3059242 44.7916187,30.1910452 44.7745996,30.0765529 C44.7072967,30.1709317 44.6063424,30.2564141 44.5784929,30.3612364 C44.252422,31.6005378 43.9325399,32.8413865 43.6285165,34.0861031 C43.6087898,34.1673307 43.7155461,34.3522202 43.7901982,34.3684658 C43.9538138,34.404438 44.1684868,34.4183627 44.2988378,34.3382955 C44.4349908,34.2543603 44.5579926,34.0582536 44.5800401,33.896572 C44.6806076,33.1701649 44.7428821,32.4387295 44.8260437,31.6434724 L44.8260437,31.6434724 Z M20.4751629,44.1726398 C20.4972104,44.3621709 20.4964368,44.4248322 20.5134559,44.4824652 C20.530475,44.5408717 20.5649001,44.5942499 20.5919759,44.649562 C20.6902227,44.6019858 20.8608007,44.5702684 20.875499,44.5037391 C21.0220955,43.8477293 21.1710128,43.1893988 21.264618,42.5241059 C21.479291,40.9993474 21.8711176,39.4985703 21.8947123,37.9482831 C21.8954859,37.892971 21.8513909,37.8368853 21.828183,37.7811863 C21.7535309,37.8314701 21.6258875,37.8705367 21.6123496,37.9339716 C21.3578364,39.1400084 21.1002288,40.3452716 20.8782066,41.5574972 C20.7118834,42.4656994 20.5950703,43.3831847 20.4751629,44.1726398 L20.4751629,44.1726398 Z M48.9686525,37.8550648 C48.9686525,38.2082115 48.9659449,38.6982849 48.9729073,39.1883582 C48.9732941,39.2417363 49.0200967,39.3233508 49.0641917,39.3388227 C49.1028715,39.3523606 49.207307,39.2997561 49.2154297,39.2622366 C49.7283242,36.8644746 50.2361902,34.4655521 50.7378675,32.0658561 C50.7614622,31.9525242 50.7394147,31.8252676 50.7189144,31.7080677 C50.6910649,31.5440653 50.5978465,31.525499 50.4442876,31.5661128 C49.8196085,31.7308888 49.5569726,32.1691312 49.4946981,32.7709892 C49.3245068,34.4183627 49.1539288,36.0657363 48.9686525,37.8550648 L48.9686525,37.8550648 Z M40.8698717,31.8577586 C40.9139667,30.8516965 40.9507125,29.9933913 40.9905528,29.1350861 C40.9959679,29.0128579 41.0172418,28.8910164 41.0261382,28.7687882 C41.0377421,28.6063329 40.9801092,28.5262657 40.8725793,28.5633983 C40.8215219,28.5808043 40.7588606,28.6376636 40.7472567,28.6875606 C40.2084468,30.9499433 39.6738917,33.2130995 39.1432045,35.4774162 C39.1103267,35.617824 39.3609719,35.784534 39.5338707,35.7504958 C40.5082154,35.5594174 40.7267564,35.3462916 40.7720118,34.4701937 C40.8192012,33.5507744 40.8416355,32.6301946 40.8698717,31.8577586 L40.8698717,31.8577586 Z M32.3603113,35.5188036 C32.3877739,35.5207376 32.4152366,35.5226716 32.4430861,35.5246056 C32.5158041,34.4872128 32.592777,33.44982 32.6562119,32.4116537 C32.6627875,32.3041238 32.6012865,32.1029887 32.55255,32.0967999 C32.3355562,32.0697241 32.2272527,32.257708 32.1746481,32.4236444 C31.4892417,34.5850728 31.1376421,36.825408 30.6309365,39.0289973 C30.6027002,39.1519991 30.8997612,39.3519738 31.0335934,39.3105864 C31.8880307,39.0479504 32.1375155,38.7551442 32.2021108,37.902641 C32.2620645,37.1085442 32.3080935,36.3136739 32.3603113,35.5188036 L32.3603113,35.5188036 Z M36.0163279,33.4428577 C36.0163279,34.5452325 36.0147807,35.5269264 36.0205827,36.509007 C36.0209694,36.5542624 36.0770552,36.6269805 36.119603,36.637424 C36.1714339,36.6498016 36.2735487,36.6262069 36.2894074,36.5902346 C36.4356171,36.2556542 36.6058083,35.9253285 36.6978663,35.5748894 C37.2633653,33.4269989 37.6196064,31.2404287 37.8520721,29.0333582 C37.9035163,28.5459924 37.9340734,28.0555323 37.9449037,27.5658458 C37.9460641,27.4935145 37.7812881,27.3492388 37.7000604,27.3542672 C36.9450304,27.3995225 36.4797121,27.7809056 36.426334,28.4032639 C36.2797374,30.1214215 36.1459053,31.8407395 36.0163279,33.4428577 L36.0163279,33.4428577 Z M14.210966,46.930511 C14.2357211,47.31963 14.2291455,47.6936639 14.2968352,48.0533862 C14.3254582,48.2042375 14.5107346,48.3256921 14.6244533,48.4606847 C14.7509363,48.3330413 14.9060423,48.2231906 14.9950059,48.0738865 C15.0862903,47.919554 15.1218757,47.7288625 15.1679047,47.5505485 C15.8653019,44.8634614 16.2493925,42.1183546 16.656691,39.3778893 C16.6826065,39.2034433 16.6450871,39.0158462 16.6160772,38.837919 C16.5924825,38.6944169 16.480311,38.6414255 16.3325541,38.6940301 C15.7836875,38.88975 15.3818041,39.2053773 15.2425568,39.8234808 C14.7141904,42.1728931 14.4326013,44.5559568 14.210966,46.930511 L14.210966,46.930511 Z M58.2131295,20.9782856 C58.2131295,20.6715546 58.2274411,20.3632764 58.20462,20.0580927 C58.1980444,19.9641007 58.1059864,19.821759 58.0266928,19.8012586 C57.9311537,19.7761168 57.7760476,19.8240797 57.7017823,19.8967978 C57.4345048,20.159047 57.2724363,20.4766083 57.2109354,20.8595385 C57.0357158,21.9506963 56.8713266,23.0449484 56.6388609,24.1245022 C56.1484007,26.4050644 55.6153928,28.6767302 55.1102344,30.954198 C55.0947624,31.0245953 55.1887544,31.1232288 55.2448401,31.1986545 C55.2510289,31.2067773 55.363974,31.1622955 55.3980122,31.1189741 C56.0439652,30.2947071 56.6435024,29.4557418 56.8233636,28.376188 C56.9235443,27.7735564 57.1649064,27.1964535 57.3111161,26.6003975 C57.7644436,24.7507285 58.208488,22.8983519 58.2131295,20.9782856 L58.2131295,20.9782856 Z M36.5203259,3.22038008 C36.4073809,3.31862683 36.3439459,3.34879709 36.3242192,3.39753366 C36.3021717,3.44975142 36.2975302,3.53291303 36.3249928,3.57855522 C36.6777528,4.15913932 37.0483055,4.72966667 37.3929427,5.31527915 C37.7689105,5.95388298 38.1537747,6.59093962 38.4798456,7.25584573 C38.9517394,8.21781287 38.7107642,8.78563263 37.7433818,9.1349114 C37.5689359,9.19757271 37.3948767,9.26332841 37.2169495,9.31477257 C34.4277477,10.126662 31.6629141,11.0104959 28.9073637,11.93417 C25.9727257,12.917411 23.1119662,14.0812868 20.229546,15.1910109 C18.7314766,15.767727 17.3068988,16.5320402 15.8212069,17.1435682 C13.181696,18.2308579 10.6957439,19.6086331 8.24692449,21.0564188 C6.48544547,22.0984532 4.85779863,23.3319526 3.38719186,24.7615588 C2.96867621,25.1684705 2.91993963,25.4229837 3.23092539,25.9049343 C3.63203513,26.5261322 4.06292832,27.1310846 4.51664262,27.7151499 C6.26148931,29.9624474 8.01987394,32.1989147 9.77400379,34.438863 C10.7270746,35.6557302 11.6809189,36.8718237 12.6363105,38.0867569 C12.9264091,38.4557624 13.1929131,38.5153293 13.5882209,38.2619765 C14.3169487,37.7951111 15.0201478,37.2884054 15.755838,36.8327571 C20.8584799,33.6726158 26.0558873,30.6772505 31.469515,28.0818346 C35.1495131,26.317648 38.881729,24.6575101 42.870392,23.682005 C43.6497904,23.4913135 44.4388587,23.3396886 45.2271535,23.1884505 C45.8444834,23.0697035 46.3291416,23.3327262 46.6594672,23.8297619 C46.8958009,24.1856163 47.0632845,24.5894336 47.2404381,24.9808734 C47.6225947,25.8256407 47.9683923,26.6874271 48.3749173,27.5198168 C48.5880431,27.9561252 48.6951862,28.466312 49.1195038,28.7815525 C49.6869368,28.6624187 49.7422489,28.0895705 50.016102,27.7255934 C50.9463517,26.4917072 51.831346,25.2230091 52.7128591,23.9535374 C54.0535017,22.0238011 55.3790591,20.0840081 56.7061637,18.1449887 C58.1036657,16.1034678 59.4972996,14.0588525 60.8862919,12.0115296 C61.0580303,11.75779 61.1930229,11.4792953 61.3388458,11.2089234 C61.4104035,11.0770252 61.3697897,10.9629197 61.2251272,10.9037396 C60.8843579,10.7633318 60.5474567,10.6082258 60.1958571,10.4999223 C55.7062904,9.11789228 51.2136293,7.74785305 46.7244493,6.36427588 C43.9487854,5.50906505 41.1793103,4.63528791 38.4055804,3.77427511 C37.7646557,3.57507404 37.1171556,3.39521287 36.5203259,3.22038008 L36.5203259,3.22038008 Z M35.2759961,0.80173092 C35.5011127,1.14907571 35.8940996,1.19742548 36.236416,1.30418179 C39.6568726,2.37019763 43.0815838,3.42267554 46.5059083,4.47592705 C51.1710815,5.91056158 55.8366414,7.34442252 60.5033617,8.77402868 C61.2711561,9.00920199 62.0505545,9.20724267 62.8160282,9.44899155 C63.3269886,9.61067319 63.661569,9.98509385 63.7470514,10.5107526 C63.8255715,10.9957976 63.851487,11.49322 63.8549681,11.9856142 C63.8677325,13.7788106 63.8483926,15.5727807 63.8673457,17.366364 C63.8770156,18.2931325 63.9199502,19.2206745 63.9864795,20.1455091 C64.0750563,21.3805557 63.7288719,22.4450244 62.9343884,23.4046707 C62.2261609,24.2602683 61.5716983,25.1638289 60.9385097,26.0774463 C60.5896177,26.5810576 60.3010662,27.1337922 60.0419114,27.6907816 C59.6744532,28.4794631 59.2671546,29.2116721 58.6359,29.8456344 C58.0313344,30.4529076 57.5447423,31.1839562 57.0453858,31.8879289 C56.2582514,32.9972661 55.5051553,34.1309717 54.7342665,35.2519129 C53.4029071,37.1874511 52.0727081,39.1241497 50.7332259,41.0538859 C50.487609,41.4074195 50.2280674,41.760953 49.9228837,42.0614952 C49.366281,42.6095883 48.4135971,42.4954828 47.9807699,41.8305767 C47.746757,41.4708544 47.5696034,41.0701314 47.3951574,40.6755973 C46.8443568,39.4328146 46.3132828,38.1811357 45.7620954,36.938353 C45.4186186,36.163983 45.1710677,36.0224149 44.3046398,36.1860305 C43.6385733,36.3121267 42.9725068,36.4699404 42.3304217,36.6857738 C38.047792,38.1235027 33.8908717,39.8443679 29.8561797,41.89904 C24.9442293,44.4000772 20.2156213,47.2004962 15.5643729,50.1436437 C15.0944131,50.4410915 14.6225193,50.7385393 14.1316723,50.9973073 C13.2571216,51.4587576 12.4409774,51.2765756 11.7366179,50.6430002 C11.372254,50.3149953 11.0751929,49.9096308 10.7669148,49.5236062 C8.33511448,46.4795043 5.91182373,43.4292137 3.47770264,40.3878194 C2.85959911,39.6153834 2.21248572,38.8665421 1.57658948,38.1084176 C1.00528853,37.4276528 0.627386685,36.6861606 0.635509447,35.7574581 C0.642471815,34.9498235 0.534555116,34.147604 0,33.4784431 L0,27.1658964 C0.442883942,26.9438743 0.590254058,26.5269058 0.60688638,26.0905974 C0.639764228,25.2137259 1.09657291,24.5693201 1.68876095,24.0080759 C2.49562201,23.2437627 3.30519064,22.4775154 4.16891103,21.7797315 C7.17394627,19.3525727 10.6253466,17.6765761 14.0678506,15.9940039 C15.06579,15.5062514 16.110532,15.1148116 17.1169809,14.6433046 C19.9170131,13.3308983 22.8129712,12.2521181 25.7155049,11.205829 C28.8508912,10.0756046 31.9951738,8.95505024 35.2191368,8.08668827 C35.5169714,8.00662105 35.8066832,7.89483637 36.0979423,7.79156125 C36.4545702,7.66507823 36.5849212,7.38929111 36.3961637,7.07907896 C35.8821089,6.23547208 35.349101,5.40385594 34.821895,4.56798502 C34.3933226,3.88876738 33.9535331,3.2165121 33.5361778,2.53071889 C33.2909477,2.12844876 33.3257596,1.70413113 33.529989,1.29064385 C33.6119902,1.12509422 33.7036614,0.964186165 33.790691,0.80173092 L35.2759961,0.80173092 Z" id="execute" fill="#000000"></path>
    </g>
</svg>