<?xml version="1.0" encoding="UTF-8"?>
<svg width="64px" height="66px" viewBox="0 0 64 66" version="1.1" xmlns="http://www.w3.org/2000/svg" xmlns:xlink="http://www.w3.org/1999/xlink">
    <!-- Generator: Sketch 41 (35326) - http://www.bohemiancoding.com/sketch -->
    <title>understand</title>
    <desc>Created with Sketch.</desc>
    <defs></defs>
    <g id="Page-1" stroke="none" stroke-width="1" fill="none" fill-rule="evenodd">
        <g id="understand" fill="#000000">
            <path d="M0.284752239,34.6026985 C0.198304478,33.0356537 0.348274627,31.4671761 0.862185075,29.9249672 C1.11054328,29.1794149 1.20511045,28.375594 1.31352836,27.5899224 C1.63066269,25.3026388 2.02564776,23.0573851 3.22779701,21.0122507 C3.7593791,20.1066985 4.02540896,19.0483104 4.45048358,18.0758925 C4.58660299,17.7640119 4.80248358,17.4530866 5.06230448,17.239594 C5.33693134,17.013206 5.71233433,17.0003104 6.06242388,17.1603104 C6.41394627,17.3222209 6.59352836,17.6188179 6.65418507,17.9779821 C6.68236418,18.144191 6.65036418,18.3390567 6.58922985,18.4990567 C6.11591642,19.7384597 5.75054328,21.0399522 5.11484179,22.190997 C4.2350806,23.7843104 3.81430448,25.4779224 3.5912597,27.2379224 C3.42361791,28.5599522 3.24976716,29.8724299 2.78743881,31.1295045 C2.4750806,31.9772657 2.44117015,32.8661015 2.43018507,33.7506388 C2.39149851,37.0337433 2.62552836,40.2810269 3.27890149,43.520191 C3.6910806,45.565803 4.44857313,47.3449075 5.56952836,49.0901015 C7.1270209,51.5149373 8.89466269,53.6708776 11.3591403,55.2044896 C11.5845731,55.3444299 11.8057075,55.4953552 12.0125134,55.6615642 C16.3721552,59.1562507 21.5824239,60.5217433 26.905409,61.5844299 C27.5912597,61.7210269 28.3172299,61.6918925 29.0236179,61.6794746 C29.819797,61.6665791 30.6159761,61.5958925 31.4102448,61.5333254 C35.3887522,61.2195343 35.9747821,61.0824597 39.6175284,59.5851463 C40.1070806,59.383594 40.5966328,59.1634149 41.0474985,58.8878328 C42.4048716,58.0563104 43.7464836,57.1985194 45.083797,56.3354746 C45.2108418,56.2528478 45.3474388,56.0584597 45.3421851,55.9218627 C45.3278567,55.5407284 44.9935284,55.6224 44.7585433,55.6209672 C43.8725731,55.6166687 42.986603,55.6434149 42.1011104,55.6329075 C41.659797,55.6281313 41.211797,55.6056836 40.780991,55.5211463 C40.5359761,55.4733851 40.3038567,55.3057433 40.0913194,55.1557731 C39.7565134,54.9207881 39.6285134,54.3853851 39.7674985,53.9636537 C39.8902448,53.5925493 40.1667821,53.4000716 40.522603,53.2954746 C40.6066627,53.2706388 40.6940657,53.2319522 40.778603,53.2357731 C43.3553194,53.3484896 45.9057672,53.0184597 48.4629015,52.7949373 C48.8077373,52.7643701 49.164991,52.8302806 49.5117373,52.8832955 C49.8823642,52.940609 50.3680955,53.431594 50.3747821,53.7974448 C50.3838567,54.3242507 50.3977075,54.8658627 50.2916776,55.3759522 C49.986006,56.8493851 49.6306627,58.3127881 49.2762746,59.7752358 C48.9429015,61.1512358 48.5909015,62.5224597 48.2350806,63.8927284 C48.1691701,64.1463403 48.0607522,64.3913552 47.9518567,64.6311164 C47.7512597,65.0700418 47.0940657,65.3260418 46.585409,65.1765493 C46.2133493,65.0666985 45.7467224,64.5556537 45.7920955,64.2079522 C45.9186627,63.2455642 46.0619463,62.2831761 46.250603,61.3308179 C46.4225433,60.4672955 46.6713791,59.6190567 46.8543045,58.7569672 C46.8667224,58.6982209 46.5720358,58.4775642 46.489409,58.5100418 C45.4143045,58.9317731 44.4270806,59.5168478 43.5349015,60.2495045 C42.4234985,61.1626985 41.1688119,61.8074746 39.8090507,62.2435343 C38.3790806,62.702997 37.0432,63.4179821 35.5401552,63.6878328 C32.5469612,64.2251463 29.5375284,64.0670567 26.5280955,64.0068776 C24.2202746,63.3941015 21.8971701,62.8333851 19.6108418,62.1489672 C18.2587224,61.7434746 16.9538866,61.1684299 15.650006,60.6172657 C15.001409,60.343594 14.3628418,60.0083104 13.7897075,59.6018627 C11.9122149,58.2688478 10.0633791,56.8952358 8.20976716,55.5283104 C6.75639403,54.4565493 5.72761791,53.0036537 4.74517015,51.5297433 C1.98982687,47.3979224 1.63830448,46.6509373 0.914722388,41.7788179 C0.564632836,39.421803 0.173946269,37.0480716 0.284752239,34.6026985" id="Fill-77"></path>
            <path d="M63.8378985,35.4552836 C63.8942567,36.7037612 63.784406,38.096 63.2155701,39.4438209 C62.9442866,40.0866866 62.8148537,40.8002388 62.6925851,41.4951642 C62.4580776,42.8200597 61.9217194,44.033194 61.3772418,45.2439403 C60.7792716,46.5740896 59.7519284,47.5469851 58.6285851,48.4281791 C58.3047642,48.681791 57.6848239,48.6464478 57.3920478,48.3823284 C57.0863761,48.1077015 56.9330627,47.4882388 57.1379582,47.1625075 C57.3696,46.7928358 57.5988537,46.3930746 57.9226746,46.1146269 C59.3440478,44.8928955 59.9214806,43.2269851 60.4091224,41.5152239 C60.6512716,40.6641194 60.7238687,39.751403 61.058197,38.942806 C61.7965851,37.153194 61.7832119,35.3129552 61.6384955,33.449791 C61.4522269,31.0579104 61.0314507,28.7094925 60.2858985,26.4226866 C60.0948537,25.8352239 59.9897791,25.2191045 59.7925254,24.6345075 C59.5675701,23.966806 59.3741373,23.2632836 59.0073313,22.6748657 C57.9766448,21.022806 56.8604657,19.4247164 55.7839284,17.8013134 C55.0450627,16.6870448 54.1762866,15.6888358 53.1818985,14.7952239 C52.5891821,14.2626866 51.9888239,13.7330149 51.441003,13.1555821 C47.9324657,9.45695522 43.4706149,7.33158209 38.8277493,5.52095522 C37.0801672,4.83940299 35.1969433,4.72525373 33.352406,4.55952239 C29.5501373,4.21802985 25.9666149,4.9879403 22.6295403,6.88501493 C21.7091821,7.40752239 20.7186149,7.80632836 19.7724657,8.28632836 C19.6449433,8.35128358 19.5556299,8.5480597 19.5093015,8.70185075 C19.4424358,8.92441791 19.5661373,9.0361791 19.7987343,9.05241791 C20.1512119,9.07725373 20.5036896,9.11164179 20.8537791,9.15797015 C22.082197,9.32083582 23.3120478,9.4760597 24.5366448,9.66710448 C24.8786149,9.7201194 25.2129433,9.86197015 25.5319881,10.0052537 C26.0048239,10.217791 26.2689433,10.8511045 26.1270925,11.3492537 C25.9804657,11.8655522 25.4598687,12.2557612 24.9254209,12.199403 C24.1335403,12.1158209 23.3478687,11.9734925 22.5550328,11.8994627 C20.6168836,11.7189254 18.6758687,11.5641791 16.7367642,11.3960597 C16.2959284,11.3583284 15.8517493,11.3363582 15.4176,11.2604179 C14.8339582,11.158209 14.3257791,10.5005373 14.3458388,9.90591045 C14.3549134,9.64179104 14.3859582,9.37576119 14.4351522,9.11641791 C14.8688239,6.8558806 15.2891224,4.59295522 15.7586149,2.33958209 C15.8832716,1.74113433 16.138794,1.16370149 16.3818985,0.597253731 C16.5700776,0.157850746 17.2568836,-0.0413134328 17.7717493,0.136835821 C18.1624358,0.272 18.5344955,0.748179104 18.4819582,1.15367164 C18.4026746,1.76262687 18.2039881,2.35964179 18.1590925,2.96955224 C18.0774209,4.08859701 17.2817194,5.12310448 17.7674507,6.30471642 C18.9089433,6.07976119 19.8651224,5.41826866 20.9091821,4.96644776 C21.1508537,4.86137313 21.3801075,4.71808955 21.5978985,4.56668657 C22.8535403,3.69265672 24.2944955,3.28191045 25.7263761,2.8 C30.0282269,1.35331343 34.3004657,1.99379104 38.5774806,2.83916418 C39.178794,2.95808955 39.7567045,3.2198209 40.328406,3.45623881 C43.3660179,4.7118806 46.2207045,6.3161791 48.9832119,8.0838209 C49.649003,8.50985075 50.2503164,9.05098507 50.8287045,9.59450746 C51.9893015,10.6877612 53.0830328,11.8526567 54.2613015,12.9263284 C55.8493612,14.3734925 57.1140776,16.0699701 58.2679881,17.8629254 C59.0340776,19.0540896 59.8154507,20.2357015 60.5600478,21.4402388 C60.883391,21.9646567 61.2521075,22.5067463 61.3925254,23.0903881 C62.0358687,25.7549851 63.1081075,28.3016119 63.4696597,31.0488358 C63.6549731,32.457791 63.8488836,33.8543284 63.8378985,35.4552836" id="Fill-79"></path>
        </g>
    </g>
</svg>